<svg width="68" height="68" viewBox="0 0 68 68" fill="none" xmlns="http://www.w3.org/2000/svg">
<mask id="mask0_52_240" style="mask-type:alpha" maskUnits="userSpaceOnUse" x="0" y="0" width="68" height="68">
<rect width="68" height="68" fill="#D9D9D9"/>
</mask>
<g mask="url(#mask0_52_240)">
<path d="M17 53.8334V56.6667C17 57.4695 16.7285 58.1424 16.1854 58.6855C15.6424 59.2286 14.9694 59.5001 14.1667 59.5001H11.3333C10.5306 59.5001 9.85764 59.2286 9.31458 58.6855C8.77153 58.1424 8.5 57.4695 8.5 56.6667V34.0001L14.45 17.0001C14.7333 16.1501 15.241 15.4654 15.9729 14.9459C16.7049 14.4265 17.5194 14.1667 18.4167 14.1667H49.5833C50.4806 14.1667 51.2951 14.4265 52.0271 14.9459C52.759 15.4654 53.2667 16.1501 53.55 17.0001L59.5 34.0001V56.6667C59.5 57.4695 59.2285 58.1424 58.6854 58.6855C58.1424 59.2286 57.4694 59.5001 56.6667 59.5001H53.8333C53.0306 59.5001 52.3576 59.2286 51.8146 58.6855C51.2715 58.1424 51 57.4695 51 56.6667V53.8334H17ZM16.4333 28.3334H51.5667L48.5917 19.8334H19.4083L16.4333 28.3334ZM21.25 45.3334C22.4306 45.3334 23.434 44.9202 24.2604 44.0938C25.0868 43.2674 25.5 42.264 25.5 41.0834C25.5 39.9029 25.0868 38.8994 24.2604 38.073C23.434 37.2466 22.4306 36.8334 21.25 36.8334C20.0694 36.8334 19.066 37.2466 18.2396 38.073C17.4132 38.8994 17 39.9029 17 41.0834C17 42.264 17.4132 43.2674 18.2396 44.0938C19.066 44.9202 20.0694 45.3334 21.25 45.3334ZM46.75 45.3334C47.9306 45.3334 48.934 44.9202 49.7604 44.0938C50.5868 43.2674 51 42.264 51 41.0834C51 39.9029 50.5868 38.8994 49.7604 38.073C48.934 37.2466 47.9306 36.8334 46.75 36.8334C45.5694 36.8334 44.566 37.2466 43.7396 38.073C42.9132 38.8994 42.5 39.9029 42.5 41.0834C42.5 42.264 42.9132 43.2674 43.7396 44.0938C44.566 44.9202 45.5694 45.3334 46.75 45.3334Z" fill="#1C1B1F"/>
</g>
</svg>
