<svg width="240" height="37" viewBox="0 0 240 37" fill="none" xmlns="http://www.w3.org/2000/svg">
<path d="M16.8924 2.17431C16.5956 2.20284 16.2989 2.24849 16.2361 2.27703C16.1733 2.31127 16.0478 2.34551 15.9507 2.36263C15.4143 2.44253 15.2602 2.47677 15.1974 2.52242C15.1575 2.55096 15.1004 2.56237 15.0662 2.53954C15.0376 2.52242 15.0091 2.52813 15.0091 2.55666C15.0091 2.5852 14.9235 2.62515 14.8151 2.64227C14.7123 2.65939 14.5126 2.72216 14.3756 2.78494C14.2387 2.84771 14.0161 2.93332 13.8849 2.97327C13.7479 3.00751 13.6395 3.05887 13.6395 3.0817C13.6395 3.09882 13.4968 3.16159 13.3256 3.22437C13.1544 3.28144 13.0117 3.34421 13.0117 3.36704C13.0117 3.38987 12.9033 3.45264 12.772 3.51542C12.6351 3.57249 12.5152 3.63526 12.4981 3.65809C12.481 3.67521 12.3041 3.79505 12.0986 3.92631C11.8932 4.05757 11.6934 4.18883 11.6592 4.22307C11.6192 4.25731 11.585 4.26302 11.585 4.24019C11.585 4.21736 11.545 4.25731 11.4937 4.32579C11.448 4.39427 11.3795 4.45134 11.3453 4.45134C11.2768 4.45134 11.2825 4.44564 10.4208 5.26172C10.0841 5.58701 9.70743 5.97508 9.58759 6.13487C9.46774 6.28895 9.30795 6.48869 9.23376 6.56859C9.15386 6.65419 9.07397 6.75692 9.05114 6.79686C8.98837 6.93383 8.61742 7.47598 8.5204 7.573C8.48616 7.61295 8.42339 7.7385 8.38914 7.84693C8.3549 7.95536 8.30354 8.04667 8.27501 8.04667C8.25218 8.04667 8.1837 8.17222 8.12663 8.33201C8.06956 8.4861 8.00678 8.61735 7.98396 8.61735C7.96113 8.61735 7.89835 8.74861 7.84699 8.9084C7.78992 9.0682 7.71573 9.26794 7.67008 9.35354C7.62443 9.43344 7.56165 9.63888 7.52741 9.79867C7.48746 9.96417 7.44181 10.1011 7.41898 10.1011C7.39615 10.1011 7.37903 10.1354 7.37332 10.1696C7.3562 10.3066 7.15646 11.214 7.12222 11.2996C6.97955 11.6591 6.91677 13.8563 7.0195 14.7009C7.05374 14.9577 7.08798 15.2487 7.09939 15.3572C7.11081 15.4656 7.13363 15.5911 7.15076 15.6368C7.17929 15.7224 7.36762 16.6869 7.37332 16.8181C7.37903 16.8581 7.40186 16.8923 7.43039 16.8923C7.45322 16.8923 7.47605 16.9437 7.47605 17.0122C7.47605 17.1491 7.65867 17.8739 7.70432 17.9195C7.72144 17.9367 7.77851 18.125 7.83558 18.3476C7.89265 18.5644 7.96113 18.7585 7.98396 18.7756C8.01249 18.7927 8.05244 18.9011 8.07527 19.021C8.09809 19.1351 8.13804 19.2492 8.16658 19.2664C8.19511 19.2835 8.21794 19.3577 8.21794 19.4376C8.21794 19.5118 8.24077 19.5745 8.26359 19.5745C8.28642 19.5745 8.34349 19.6944 8.38344 19.8428C8.42909 19.9968 8.49187 20.1566 8.53182 20.2023C8.57176 20.2479 8.61742 20.3621 8.64025 20.4534C8.66307 20.5447 8.75438 20.7787 8.83999 20.967C8.9313 21.161 9.02261 21.3722 9.03973 21.4407C9.06255 21.5149 9.10821 21.5719 9.13674 21.5719C9.16528 21.5719 9.18811 21.6233 9.18811 21.6804C9.18811 21.7431 9.21664 21.8116 9.24517 21.8287C9.27942 21.8459 9.30224 21.9143 9.30224 21.9714C9.30224 22.0285 9.33648 22.1141 9.37643 22.154C9.48486 22.2739 9.58759 22.4736 9.58759 22.5649C9.58759 22.6106 9.62183 22.6848 9.66178 22.7247C9.70172 22.7647 9.78162 22.913 9.84439 23.0557C9.90717 23.1984 9.96995 23.3239 9.98707 23.3411C10.0042 23.3582 10.067 23.4723 10.1297 23.5979C10.1925 23.7234 10.2553 23.8376 10.2724 23.8547C10.2952 23.8718 10.358 23.9859 10.4265 24.1115C10.6776 24.6137 10.7518 24.7392 10.7803 24.7678C10.7974 24.7849 10.8888 24.939 10.9744 25.1102C11.2312 25.6181 11.3795 25.8635 11.4823 25.9719C11.5393 26.029 11.5964 26.1431 11.6192 26.223C11.6364 26.3029 11.6763 26.3657 11.6991 26.3657C11.7277 26.3657 11.7676 26.4228 11.7904 26.4913C11.8247 26.6054 12.1271 27.0905 12.2698 27.2617C12.2983 27.3016 12.3269 27.3473 12.3269 27.3701C12.3269 27.3929 12.4296 27.5584 12.5552 27.7411C12.6807 27.9237 12.7834 28.1006 12.7834 28.1348C12.7834 28.1634 12.812 28.1919 12.8405 28.1919C12.8747 28.1919 12.9204 28.2376 12.9375 28.2889C12.9603 28.346 13.0345 28.4715 13.1087 28.5685C13.1829 28.6656 13.24 28.7683 13.24 28.7968C13.24 28.8254 13.3313 28.9509 13.4397 29.0708C13.5481 29.1963 13.6395 29.3219 13.6395 29.3447C13.6395 29.3732 13.6623 29.4246 13.6965 29.4645C13.959 29.7841 14.0389 29.8982 14.0389 29.9439C14.0389 29.9781 14.0903 30.0466 14.1588 30.1094C14.2273 30.1665 14.33 30.3206 14.3928 30.4461C14.4555 30.5717 14.5469 30.6972 14.5868 30.72C14.6325 30.7429 14.6667 30.7999 14.6667 30.8456C14.6667 30.8912 14.7123 30.9597 14.7694 30.9997C14.8778 31.0853 14.9977 31.2508 15.0433 31.3992C15.0605 31.4505 15.1118 31.5076 15.1575 31.5247C15.2031 31.5418 15.2374 31.5875 15.2374 31.6274C15.2374 31.6674 15.2887 31.7359 15.3515 31.7758C15.4143 31.8158 15.4657 31.8842 15.4657 31.9299C15.4657 31.9698 15.5227 32.0497 15.5912 32.0954C15.6597 32.1468 15.6939 32.1867 15.6654 32.1867C15.6369 32.1867 15.6711 32.2381 15.7339 32.3008C15.8024 32.3579 15.8708 32.4606 15.8937 32.5234C15.9108 32.5805 15.9622 32.649 16.0078 32.6661C16.0535 32.6832 16.0934 32.7346 16.0934 32.7802C16.0934 32.8202 16.1334 32.8715 16.179 32.8944C16.2247 32.9115 16.2932 32.9914 16.3217 33.0713C16.3502 33.1512 16.4016 33.2139 16.4358 33.2139C16.4644 33.2139 16.4929 33.2482 16.4929 33.2938C16.4929 33.4023 17.2633 34.1841 17.3717 34.1841C17.4174 34.1841 17.4631 34.2069 17.4745 34.2355C17.5372 34.4238 18.9868 34.4238 19.0496 34.2355C19.061 34.2069 19.1066 34.1841 19.1523 34.1841C19.2607 34.1841 20.0311 33.4023 20.0311 33.2938C20.0311 33.2482 20.0597 33.2139 20.0882 33.2139C20.1225 33.2139 20.1738 33.1512 20.2024 33.0713C20.2309 32.9914 20.2994 32.9115 20.345 32.8944C20.3907 32.8715 20.4306 32.8202 20.4306 32.7802C20.4306 32.7346 20.4706 32.6832 20.5162 32.6661C20.5619 32.649 20.6132 32.5805 20.6304 32.5234C20.6532 32.4606 20.7217 32.3579 20.7902 32.3008C20.8529 32.2381 20.8872 32.1867 20.8586 32.1867C20.8301 32.1867 20.8643 32.1468 20.9328 32.0954C21.0013 32.0497 21.0584 31.9698 21.0584 31.9299C21.0584 31.8842 21.1097 31.8158 21.1725 31.7758C21.2353 31.7359 21.2867 31.6731 21.2867 31.6331C21.2867 31.5932 21.3209 31.5418 21.3608 31.519C21.4293 31.4733 21.5435 31.3136 21.6119 31.1595C21.6348 31.1138 21.6976 31.0396 21.7546 30.9997C21.8117 30.9597 21.8573 30.8912 21.8573 30.8456C21.8573 30.7999 21.8916 30.7429 21.9372 30.72C21.9772 30.6972 22.0685 30.5717 22.1313 30.4461C22.194 30.3206 22.2968 30.1665 22.3653 30.1094C22.4337 30.0466 22.4851 29.9781 22.4851 29.9439C22.4851 29.8982 22.5536 29.8069 22.8275 29.4702C22.856 29.4303 22.8675 29.3903 22.856 29.3789C22.8446 29.3675 22.9359 29.242 23.0558 29.105C23.1813 28.9623 23.2841 28.8254 23.2841 28.7968C23.2841 28.7683 23.3411 28.6656 23.4153 28.5685C23.4895 28.4715 23.5637 28.346 23.5865 28.2889C23.6036 28.2376 23.6493 28.1919 23.6835 28.1919C23.7121 28.1919 23.7406 28.1634 23.7406 28.1348C23.7406 28.1006 23.8433 27.9237 23.9689 27.7411C24.0944 27.5584 24.1972 27.3758 24.1972 27.3416C24.1972 27.3073 24.2257 27.2788 24.2542 27.2788C24.2885 27.2788 24.3398 27.2103 24.3684 27.1304C24.4026 27.0505 24.4882 26.9021 24.5681 26.7994C24.648 26.6967 24.6994 26.5997 24.6822 26.5883C24.6708 26.5711 24.7222 26.4855 24.7964 26.3999C24.8763 26.3086 24.939 26.2059 24.939 26.166C24.939 26.1317 24.9847 26.0518 25.0418 25.989C25.1445 25.8692 25.2929 25.6181 25.5497 25.1102C25.6353 24.939 25.7266 24.7849 25.7437 24.7678C25.7723 24.7392 25.8236 24.6479 26.1032 24.1115C26.166 23.9859 26.2516 23.849 26.2859 23.809C26.3258 23.7691 26.3886 23.6492 26.4285 23.5408C26.4685 23.4324 26.5198 23.3411 26.537 23.3411C26.5541 23.3411 26.6169 23.2098 26.6796 23.0557C26.7424 22.8959 26.8052 22.7704 26.828 22.7704C26.8451 22.7704 26.9079 22.6505 26.965 22.5022C27.0221 22.3481 27.1077 22.194 27.1476 22.154C27.1876 22.1141 27.2218 22.0285 27.2218 21.9714C27.2218 21.9143 27.2503 21.8459 27.2789 21.8287C27.3131 21.8116 27.3359 21.7431 27.3359 21.6804C27.3359 21.6233 27.3588 21.5719 27.3873 21.5719C27.4158 21.5719 27.4957 21.4121 27.5699 21.2124C27.6384 21.0184 27.7183 20.8472 27.7411 20.83C27.7639 20.8129 27.8153 20.6874 27.8553 20.5447C27.8952 20.402 27.958 20.2479 27.9922 20.2023C28.0322 20.1566 28.0949 19.9968 28.1406 19.8428C28.1805 19.6944 28.2376 19.5745 28.2604 19.5745C28.2833 19.5745 28.3061 19.5118 28.3061 19.4376C28.3061 19.3577 28.3289 19.2835 28.3575 19.2664C28.386 19.2435 28.4259 19.1294 28.4488 19.0038C28.4716 18.8783 28.5058 18.7756 28.5344 18.7756C28.5572 18.7756 28.62 18.6158 28.6713 18.416C28.7227 18.222 28.7912 18.0109 28.8197 17.9481C28.8939 17.7597 29.048 17.1491 29.048 17.0179C29.048 16.9494 29.0708 16.8923 29.0936 16.8923C29.1222 16.8923 29.145 16.8581 29.145 16.8181C29.1507 16.7268 29.339 15.7452 29.379 15.6368C29.3961 15.5911 29.4132 15.4656 29.4246 15.3572C29.4361 15.2487 29.4703 14.9577 29.5045 14.7009C29.6073 13.8563 29.5445 11.6591 29.4018 11.2996C29.3847 11.2539 29.3276 11.0085 29.2763 10.7574C29.1564 10.1982 29.1393 10.1354 29.0994 10.1011C29.0822 10.084 29.0252 9.9014 28.9681 9.68454C28.911 9.47338 28.8483 9.30218 28.8254 9.30218C28.8026 9.30218 28.7512 9.17092 28.7113 9.01683C28.6713 8.85704 28.6086 8.69725 28.5686 8.6573C28.5287 8.61735 28.4488 8.46898 28.3917 8.31489C28.3346 8.16651 28.2719 8.04667 28.2433 8.04667C28.2205 8.04667 28.1691 7.95536 28.1349 7.84693C28.1007 7.7385 28.0379 7.61295 28.0036 7.573C27.9066 7.47598 27.5357 6.93383 27.4729 6.79686C27.4501 6.75692 27.3702 6.65419 27.2903 6.56859C27.2161 6.48869 27.0563 6.28895 26.9365 6.13487C26.8166 5.97508 26.44 5.58701 26.1032 5.26172C25.2415 4.44564 25.2472 4.45134 25.1787 4.45134C25.1445 4.45134 25.076 4.39427 25.0304 4.32579C24.979 4.25731 24.939 4.21736 24.939 4.24019C24.939 4.26302 24.9048 4.25731 24.8706 4.22307C24.8306 4.18883 24.6309 4.05757 24.4254 3.92631C24.22 3.79505 24.0431 3.67521 24.026 3.65809C24.0088 3.63526 23.889 3.57249 23.7577 3.51542C23.6208 3.45264 23.5123 3.38987 23.5123 3.36704C23.5123 3.34421 23.3697 3.28144 23.1985 3.22437C23.0272 3.16159 22.8846 3.09882 22.8846 3.0817C22.8846 3.05887 22.7761 3.00751 22.6449 2.97327C22.5079 2.93332 22.2854 2.84771 22.1484 2.78494C22.0114 2.72216 21.8117 2.65939 21.709 2.64227C21.6005 2.62515 21.5149 2.5852 21.5149 2.55666C21.5149 2.52813 21.4864 2.52242 21.4579 2.53954C21.4236 2.56237 21.3666 2.55096 21.3266 2.52242C21.2638 2.47106 21.0755 2.43111 20.5448 2.35692C20.4363 2.3398 20.3165 2.30556 20.288 2.28274C20.1167 2.14006 18.0109 2.07729 16.8924 2.17431ZM19.5803 5.96366C20.7616 6.18052 21.6861 6.56288 22.6848 7.25341C23.1642 7.58441 24.0716 8.49751 24.4368 9.01683C25.0931 9.95276 25.544 11.0485 25.738 12.1841C26.1432 14.5525 25.3499 17.0236 23.6322 18.7585C22.2397 20.1566 20.2195 21.0012 18.262 21.0012C16.2989 21.0012 14.2444 20.1452 12.9147 18.7699C11.7619 17.5885 11.1227 16.3616 10.8146 14.7694C10.5692 13.4739 10.6662 12.1956 11.0999 10.94C11.4823 9.84433 12.0301 8.97118 12.8919 8.08662C13.9876 6.96236 15.2944 6.27183 16.8981 5.96366C17.8625 5.78104 18.5987 5.78104 19.5803 5.96366Z" fill="#FFCA52"/>
<path d="M15.8481 9.04532C15.5342 9.15375 15.363 9.33637 15.266 9.66737C15.1347 10.1011 15.1404 17.1319 15.266 17.5657C15.3915 17.988 15.694 18.2048 16.1563 18.2048C16.4473 18.2048 16.5158 18.182 16.6927 18.0279C16.8068 17.9252 16.9267 17.7939 16.9666 17.7255C17.0123 17.6456 17.0465 17.1776 17.0637 16.3501L17.0922 15.0946L18.0338 15.0604C18.7586 15.0375 19.0554 15.0033 19.3179 14.9177C20.231 14.6095 20.9557 13.8334 21.2068 12.8975C21.3609 12.3211 21.3381 11.5506 21.1498 10.9914C20.8017 9.95842 19.8657 9.17087 18.8042 9.01678C18.1879 8.93118 16.1106 8.9483 15.8481 9.04532ZM18.7928 10.9229C18.8956 10.9628 19.0611 11.0884 19.1581 11.2025C19.6603 11.7732 19.5062 12.7548 18.8613 13.0915C18.6616 13.1942 18.5303 13.2113 17.8626 13.2113H17.0922L17.0751 12.0985C17.0694 11.4879 17.0751 10.9571 17.0865 10.9172C17.1321 10.8087 18.5417 10.8144 18.7928 10.9229Z" fill="white"/>
<path d="M58.8804 9.50621H46.341V14.0151H57.6955V18.3924H46.341V23.362H58.8804V27.7393H41.4701V5.12896H58.8804V9.50621ZM70.0251 10.329C74.4681 10.329 77.496 13.1265 77.496 17.5696V27.7393H72.8555V26.0279C71.6377 27.4101 69.696 28.1342 67.8529 28.1342C64.2326 28.1342 61.4351 25.962 61.4351 22.7038C61.4351 19.3468 64.5617 17.043 68.5111 17.043C69.8934 17.043 71.4074 17.3392 72.8555 17.8987V17.5696C72.8555 15.7594 71.7365 14.1797 68.939 14.1797C67.3592 14.1797 65.8782 14.7062 64.5288 15.3974L62.9162 12.205C65.3187 10.9872 67.6554 10.329 70.0251 10.329ZM68.939 24.8101C70.782 24.8101 72.5264 23.9544 72.8555 22.3747V20.7949C71.7694 20.4 70.5187 20.1696 69.2023 20.1696C67.458 20.1696 66.0757 21.1898 66.0757 22.5721C66.0757 23.9544 67.2934 24.8101 68.939 24.8101ZM87.9308 28.1342C85.1991 28.1342 82.3029 27.2127 80.2624 25.5671L82.3358 22.243C83.8498 23.3291 85.7586 24.1519 88.0295 24.1519C89.3131 24.1519 90.2346 23.6253 90.2346 22.8683C90.2346 21.8152 88.984 21.486 87.2397 21.0253C83.751 20.1696 81.0523 19.2151 81.0194 15.8582C80.9864 12.6328 83.6523 10.329 87.6675 10.329C90.103 10.329 92.5055 11.1847 94.3815 12.4353L92.4397 15.8582C90.8929 14.9037 89.1156 14.3442 87.6675 14.3442C86.4827 14.3442 85.6599 14.7721 85.6599 15.3645C85.6599 16.286 86.351 16.5493 88.6549 17.1746C91.584 17.9316 94.8422 18.9189 94.8422 22.638C94.8422 25.9949 92.1106 28.1342 87.9308 28.1342ZM101.95 33.6634C100.534 33.6634 98.823 33.2355 97.6711 32.6102L98.6914 29.319C99.5142 29.7798 100.37 30.076 100.929 30.076C101.851 30.076 102.575 29.7798 102.937 29.1545L103.529 27.9038L96.4534 10.7239H101.423L105.899 22.6709L110.145 10.7239H115.048L108.071 28.595C106.788 31.919 104.615 33.6634 101.95 33.6634Z" fill="white"/>
<path d="M117.964 27.7393V5.12896H128.134C133.037 5.12896 136.658 8.28848 136.658 12.7645C136.658 17.2404 133.037 20.4 128.134 20.4H122.802V27.7393H117.964ZM122.802 15.9569H127.607C130.01 15.9569 131.655 14.7062 131.655 12.7645C131.655 10.8227 130.01 9.57203 127.607 9.57203H122.802V15.9569ZM147.162 10.329C151.605 10.329 154.633 13.1265 154.633 17.5696V27.7393H149.992V26.0279C148.774 27.4101 146.833 28.1342 144.99 28.1342C141.369 28.1342 138.572 25.962 138.572 22.7038C138.572 19.3468 141.698 17.043 145.648 17.043C147.03 17.043 148.544 17.3392 149.992 17.8987V17.5696C149.992 15.7594 148.873 14.1797 146.076 14.1797C144.496 14.1797 143.015 14.7062 141.665 15.3974L140.053 12.205C142.455 10.9872 144.792 10.329 147.162 10.329ZM146.076 24.8101C147.919 24.8101 149.663 23.9544 149.992 22.3747V20.7949C148.906 20.4 147.655 20.1696 146.339 20.1696C144.595 20.1696 143.212 21.1898 143.212 22.5721C143.212 23.9544 144.43 24.8101 146.076 24.8101ZM163.488 13.8835C164.607 11.6784 166.713 10.329 169.313 10.329V14.3771C165.759 14.3771 163.488 16.4177 163.488 19.6101V27.7393H158.683V10.7239H163.488V13.8835ZM188.64 10.7239L182.024 18.2607L188.574 27.7393H183.045L178.832 21.3544L176.791 23.5595V27.7393H171.986V4.73402H176.791V18.0632L183.111 10.7239H188.64ZM193.29 8.38721C191.809 8.38721 190.657 7.20239 190.657 5.75428C190.657 4.4049 191.809 3.18717 193.29 3.18717C194.705 3.18717 195.857 4.4049 195.857 5.75428C195.857 7.20239 194.705 8.38721 193.29 8.38721ZM190.854 27.7393V10.7239H195.659V27.7393H190.854ZM209.695 10.329C213.381 10.329 216.014 13.0607 216.014 16.9113V27.7393H211.373V17.9316C211.373 15.8252 210.057 14.3771 208.148 14.3771C206.14 14.3771 204.594 15.8252 204.594 17.6683L204.561 17.5696V27.7393H199.756V10.7239H204.561V12.8632C205.581 11.3163 207.49 10.329 209.695 10.329ZM232.38 10.7239H237.218V25.9291C237.218 30.3064 233.433 33.4001 228.068 33.4001C225.073 33.4001 222.243 32.4456 220.564 31.1292L222.243 27.7393C223.362 28.7266 225.336 29.3519 227.311 29.3519C230.405 29.3519 232.38 27.9367 232.38 25.7316V23.8557C231.03 25.5013 228.99 26.4886 226.752 26.4886C222.473 26.4886 219.215 23.1316 219.215 18.3924C219.215 13.6531 222.473 10.329 226.752 10.329C229.055 10.329 231.228 11.4151 232.38 13.0278V10.7239ZM228.266 22.4405C230.668 22.4405 232.38 20.762 232.38 18.3924C232.38 16.0227 230.668 14.3771 228.266 14.3771C225.863 14.3771 224.152 16.0227 224.152 18.3924C224.152 20.762 225.863 22.4405 228.266 22.4405Z" fill="#FFCA52"/>
</svg>
