<svg width="64" height="64" viewBox="0 0 64 64" fill="none" xmlns="http://www.w3.org/2000/svg">
<mask id="mask0_52_246" style="mask-type:alpha" maskUnits="userSpaceOnUse" x="0" y="0" width="64" height="64">
<rect width="64" height="64" fill="#D9D9D9"/>
</mask>
<g mask="url(#mask0_52_246)">
<path d="M10.6667 50.6668C7.73333 50.6668 5.22222 49.6224 3.13333 47.5335C1.04444 45.4446 0 42.9335 0 40.0002C0 37.4668 0.811111 35.2224 2.43333 33.2668C4.05556 31.3113 6.13333 30.0891 8.66667 29.6002L6.8 28.0002H0V24.0002H12L18.6667 28.0002L29.3333 24.0002H37.7333L33.6 18.6668H26.6667V13.3335H36.1333L41.7333 20.5335L50.6667 16.0002V24.0002H44.5333L49.2 30.1335C49.8667 29.8668 50.5444 29.6668 51.2333 29.5335C51.9222 29.4002 52.6222 29.3335 53.3333 29.3335C56.2667 29.3335 58.7778 30.3779 60.8667 32.4668C62.9556 34.5557 64 37.0668 64 40.0002C64 42.9335 62.9556 45.4446 60.8667 47.5335C58.7778 49.6224 56.2667 50.6668 53.3333 50.6668C50.4 50.6668 47.8889 49.6224 45.8 47.5335C43.7111 45.4446 42.6667 42.9335 42.6667 40.0002C42.6667 38.8002 42.8778 37.6335 43.3 36.5002C43.7222 35.3668 44.3111 34.3113 45.0667 33.3335L43.7333 31.7335L34.6667 45.3335H26.6667L21.3333 40.6668C21.1111 43.4668 19.9778 45.8335 17.9333 47.7668C15.8889 49.7002 13.4667 50.6668 10.6667 50.6668ZM10.6667 45.3335C12.1333 45.3335 13.3889 44.8113 14.4333 43.7668C15.4778 42.7224 16 41.4668 16 40.0002C16 38.5335 15.4778 37.2779 14.4333 36.2335C13.3889 35.1891 12.1333 34.6668 10.6667 34.6668C9.2 34.6668 7.94444 35.1891 6.9 36.2335C5.85556 37.2779 5.33333 38.5335 5.33333 40.0002C5.33333 41.4668 5.85556 42.7224 6.9 43.7668C7.94444 44.8113 9.2 45.3335 10.6667 45.3335ZM53.3333 45.3335C54.8 45.3335 56.0556 44.8113 57.1 43.7668C58.1444 42.7224 58.6667 41.4668 58.6667 40.0002C58.6667 38.5335 58.1444 37.2779 57.1 36.2335C56.0556 35.1891 54.8 34.6668 53.3333 34.6668C51.8667 34.6668 50.6111 35.1891 49.5667 36.2335C48.5222 37.2779 48 38.5335 48 40.0002C48 41.4668 48.5222 42.7224 49.5667 43.7668C50.6111 44.8113 51.8667 45.3335 53.3333 45.3335Z" fill="#1C1B1F"/>
</g>
</svg>
